<?xml version="1.0" standalone="no"?>
<!DOCTYPE svg PUBLIC "-//W3C//DTD SVG 20010904//EN"
 "http://www.w3.org/TR/2001/REC-SVG-20010904/DTD/svg10.dtd">
<svg version="1.0" xmlns="http://www.w3.org/2000/svg"
 width="512.000000pt" height="512.000000pt" viewBox="0 0 512.000000 512.000000"
 preserveAspectRatio="xMidYMid meet">

<g transform="translate(0.000000,512.000000) scale(0.100000,-0.100000)"
fill="#000000" stroke="none">
<path d="M1200 5104 c-119 -32 -217 -116 -274 -234 l-31 -65 0 -1585 0 -1585
33 -68 c61 -123 177 -211 311 -237 35 -6 465 -10 1210 -10 1243 0 1222 0 1323
51 54 28 149 123 177 177 47 93 51 131 51 550 l0 393 -25 24 c-30 31 -57 31
-167 5 -102 -24 -250 -26 -351 -4 -40 8 -118 38 -175 65 -89 43 -115 62 -191
137 -48 48 -99 103 -113 122 l-26 35 -683 5 -684 5 -63 34 c-75 41 -125 94
-161 170 l-26 56 -3 618 c-2 537 -1 626 13 680 26 101 84 174 180 225 l50 27
852 3 c838 2 852 2 906 -18 112 -42 201 -159 213 -280 7 -67 22 -108 43 -119
9 -5 41 -12 71 -16 76 -9 124 -22 186 -51 68 -31 89 -30 125 5 l29 29 0 241
c0 140 -5 262 -11 293 -33 153 -158 283 -313 324 -79 21 -2397 19 -2476 -2z
m1552 -2596 c69 -32 136 -97 168 -163 36 -73 40 -189 9 -270 -31 -82 -112
-163 -194 -194 -56 -21 -71 -22 -310 -19 -236 3 -253 4 -296 26 -74 36 -125
87 -161 160 -30 60 -33 75 -33 152 1 109 31 176 111 249 90 83 130 91 414 88
231 -2 236 -2 292 -29z"/>
<path d="M2204 2351 c-128 -59 -136 -239 -13 -301 35 -18 59 -20 257 -20 211
0 220 1 253 23 52 35 79 82 79 139 0 63 -29 120 -77 149 -36 23 -47 24 -248
27 -188 2 -214 0 -251 -17z"/>
<path d="M3574 4089 c-61 -8 -145 -51 -182 -93 -51 -58 -293 -416 -317 -469
-55 -120 -70 -272 -40 -392 56 -221 236 -400 453 -451 88 -21 242 -14 333 15
165 53 308 193 376 369 20 53 27 91 31 177 5 125 -10 201 -57 295 -34 69 -288
435 -328 472 -36 34 -126 75 -178 80 -22 2 -63 1 -91 -3z"/>
<path d="M2023 1126 c-27 -23 -28 -28 -27 -113 2 -108 27 -181 85 -247 50 -56
145 -105 222 -113 l57 -6 0 -299 0 -299 25 -24 c31 -32 75 -32 112 -1 l28 24
3 300 3 299 55 7 c78 9 153 48 208 106 69 73 89 126 94 240 4 91 3 96 -21 123
l-26 27 -395 0 -395 0 -28 -24z"/>
</g>
</svg>
