<?xml version="1.0" standalone="no"?>
<!DOCTYPE svg PUBLIC "-//W3C//DTD SVG 20010904//EN"
 "http://www.w3.org/TR/2001/REC-SVG-20010904/DTD/svg10.dtd">
<svg version="1.0" xmlns="http://www.w3.org/2000/svg"
 width="540.000000pt" height="140.000000pt" viewBox="0 0 540.000000 140.000000"
 preserveAspectRatio="xMidYMid meet">

<g transform="translate(0.000000,140.000000) scale(0.100000,-0.100000)"
fill="#f9b17a" stroke="none">
<path d="M1036 1218 c-11 -16 -16 -46 -16 -100 l0 -77 -95 -52 -95 -53 0 -115
0 -116 -59 -32 c-33 -18 -65 -33 -71 -33 -7 0 -52 22 -101 50 l-89 50 -120
-67 -120 -67 0 -106 0 -105 -71 -44 c-39 -24 -80 -53 -90 -64 -40 -44 -9 -98
44 -78 14 5 56 30 95 54 l69 45 97 -49 96 -50 95 49 95 49 95 -49 95 -49 120
62 120 63 0 117 0 118 68 36 67 36 105 -32 c58 -18 110 -32 116 -33 6 -1 51
53 100 119 l90 120 -90 120 c-49 66 -94 120 -101 119 -6 -1 -65 -18 -131 -39
l-120 -37 -56 31 -56 32 -4 90 c-2 66 -7 92 -18 99 -25 16 -48 11 -64 -12z
m101 -300 l63 -33 0 -83 0 -82 -65 -32 -65 -32 -70 34 -70 34 0 77 0 77 63 35
c34 20 67 36 72 37 6 0 38 -14 72 -32z m363 -35 c24 -31 43 -62 43 -68 0 -12
-82 -125 -91 -125 -3 0 -36 10 -74 22 l-68 22 0 81 0 81 63 21 c34 12 67 22
73 22 7 1 31 -25 54 -56z m-915 -299 l65 -36 0 -77 0 -77 -70 -34 -70 -34 -70
34 -70 34 0 77 0 77 63 35 c34 20 67 36 74 36 7 1 42 -15 78 -35z m380 0 l65
-36 0 -77 0 -77 -70 -34 -70 -34 -70 34 -70 34 0 77 0 77 63 35 c34 20 67 36
74 36 7 1 42 -15 78 -35z"/>
<path d="M4860 977 c-93 -26 -153 -79 -197 -172 -26 -55 -28 -69 -28 -180 0
-108 3 -125 26 -175 36 -77 80 -124 147 -157 51 -25 68 -28 157 -28 89 0 106
3 157 28 67 33 111 80 147 157 23 50 26 67 26 175 0 108 -3 125 -26 175 -58
124 -142 180 -281 186 -50 2 -101 -1 -128 -9z m184 -141 c14 -9 36 -35 48 -59
20 -36 23 -57 23 -152 0 -102 -2 -114 -27 -156 -33 -57 -83 -84 -140 -76 -53
7 -83 29 -110 80 -20 36 -23 57 -23 152 0 95 3 116 23 153 31 59 74 84 134 79
26 -2 58 -11 72 -21z"/>
<path d="M1830 630 l0 -350 235 0 235 0 0 65 0 65 -145 0 -145 0 0 285 0 285
-90 0 -90 0 0 -350z"/>
<path d="M2350 920 l0 -60 55 0 55 0 0 -230 0 -230 -55 0 -55 0 0 -60 0 -60
190 0 190 0 0 60 0 60 -50 0 -50 0 0 230 0 230 50 0 50 0 0 60 0 60 -190 0
-190 0 0 -60z"/>
<path d="M2850 631 l0 -351 85 0 85 0 0 115 0 115 68 0 c102 0 168 23 223 79
29 28 51 61 58 86 25 91 4 192 -50 242 -53 49 -92 57 -286 61 l-183 4 0 -351z
m326 185 c26 -30 32 -92 13 -128 -14 -27 -69 -48 -124 -48 l-45 0 0 106 0 106
66 -4 c58 -4 70 -8 90 -32z"/>
<path d="M3450 920 l0 -60 50 0 50 0 0 -230 0 -230 -50 0 -50 0 0 -60 0 -60
185 0 185 0 0 60 0 60 -50 0 -50 0 0 230 0 230 50 0 50 0 0 60 0 60 -185 0
-185 0 0 -60z"/>
<path d="M3940 630 l0 -352 183 4 c174 4 185 5 244 32 72 33 127 87 163 161
22 44 25 64 25 155 0 131 -22 187 -101 259 -79 73 -117 83 -331 88 l-183 5 0
-352z m357 188 c51 -34 76 -86 81 -170 10 -154 -62 -237 -205 -238 l-63 0 0
221 0 221 73 -4 c59 -2 82 -9 114 -30z"/>
</g>
</svg>
