<?xml version="1.0" standalone="no"?>
<!DOCTYPE svg PUBLIC "-//W3C//DTD SVG 20010904//EN"
 "http://www.w3.org/TR/2001/REC-SVG-20010904/DTD/svg10.dtd">
<svg version="1.0" xmlns="http://www.w3.org/2000/svg"
 width="512.000000pt" height="512.000000pt" viewBox="0 0 512.000000 512.000000"
 preserveAspectRatio="xMidYMid meet">
<metadata>
Created by potrace 1.16, written by Peter Selinger 2001-2019
</metadata>
<g transform="translate(0.000000,512.000000) scale(0.100000,-0.100000)"
fill="#B58863" stroke="none">
<path d="M2265 5108 c-441 -49 -891 -231 -1263 -510 -124 -93 -332 -295 -433
-421 -283 -351 -457 -739 -540 -1204 -30 -167 -38 -547 -15 -723 82 -622 350
-1145 808 -1576 353 -333 843 -569 1348 -649 140 -23 504 -31 652 -16 125 13
308 46 350 62 37 15 58 51 58 99 0 33 -6 48 -30 72 -29 28 -35 30 -83 25 -29
-3 -101 -15 -162 -27 -158 -30 -502 -38 -675 -16 -806 106 -1478 584 -1830
1301 -163 332 -240 662 -240 1030 0 277 34 486 121 750 284 856 1036 1472
1942 1590 152 19 422 19 574 0 1087 -143 1918 -983 2053 -2075 15 -125 12
-411 -5 -547 -87 -657 -430 -1235 -966 -1624 -78 -57 -98 -96 -79 -153 22 -69
105 -88 176 -40 163 110 416 349 544 512 219 281 390 628 476 964 52 208 66
319 71 573 5 246 -5 375 -43 565 -73 365 -242 736 -476 1048 -141 188 -393
427 -590 560 -338 228 -736 377 -1138 427 -137 17 -470 19 -605 3z"/>
<path d="M2405 4663 c-27 -2 -97 -10 -155 -19 -782 -116 -1437 -663 -1686
-1408 -172 -515 -145 -1054 76 -1549 193 -431 563 -812 987 -1018 822 -399
1782 -240 2423 401 570 570 763 1396 506 2166 -303 905 -1186 1491 -2151 1427z
m320 -213 c580 -55 1094 -363 1419 -850 57 -85 176 -313 176 -337 0 -23 -81
-73 -153 -95 -198 -60 -394 32 -488 228 -22 46 -50 90 -62 98 -12 7 -58 16
-102 19 -186 11 -347 109 -443 268 -35 59 -62 147 -71 237 -14 137 -58 163
-196 117 -113 -38 -202 -33 -310 18 -85 41 -112 44 -155 22 -21 -11 -35 -32
-56 -87 -62 -166 -171 -261 -332 -289 -183 -33 -392 100 -447 284 l-13 42 67
43 c322 211 770 319 1166 282z m-1394 -502 c58 -146 209 -281 373 -335 68 -22
99 -26 191 -26 179 0 309 53 434 177 32 31 73 82 91 114 l34 57 71 -18 c52
-13 96 -17 172 -15 l102 3 22 -70 c83 -275 301 -470 583 -522 l81 -15 35 -61
c76 -132 231 -246 381 -282 76 -17 207 -19 281 -4 29 6 90 28 134 49 l82 38
16 -77 c57 -271 58 -512 5 -775 -21 -102 -67 -255 -99 -331 l-19 -44 -68 34
c-92 46 -174 65 -276 65 -114 0 -175 -14 -277 -62 -109 -52 -227 -167 -277
-269 -34 -70 -63 -165 -63 -209 0 -25 -1 -25 -80 -25 l-79 0 -16 42 c-26 68
-109 187 -174 251 -106 104 -231 175 -376 212 -111 29 -289 29 -400 0 -197
-50 -374 -172 -483 -332 l-33 -48 -40 21 c-161 82 -400 75 -565 -16 l-63 -34
-34 47 c-235 326 -365 807 -329 1214 35 388 178 750 409 1038 53 65 222 240
233 240 4 0 13 -15 21 -32z m2779 -2280 c100 -47 99 -46 56 -116 -97 -160
-277 -359 -438 -485 -576 -450 -1337 -531 -1993 -212 -191 93 -340 197 -499
349 -66 63 -68 67 -50 81 33 25 144 55 205 55 80 0 174 -33 244 -85 70 -53
101 -61 149 -41 30 12 42 26 62 73 102 230 319 374 564 374 175 0 308 -56 430
-180 82 -83 118 -142 159 -259 23 -68 30 -79 62 -95 35 -17 41 -17 124 -1 75
15 94 16 148 4 34 -7 83 -15 109 -17 43 -4 51 -2 78 25 29 29 30 33 29 124 -2
136 22 210 96 296 46 53 111 98 178 123 77 29 212 22 287 -13z"/>
<path d="M2433 3344 c-23 -9 -62 -33 -88 -56 -165 -146 -129 -412 70 -508 73
-35 180 -34 256 1 66 31 120 84 151 148 31 63 32 185 2 252 -52 113 -156 180
-279 178 -38 0 -89 -7 -112 -15z m172 -216 c15 -14 28 -38 31 -59 5 -31 1 -42
-24 -70 -41 -46 -92 -47 -133 -1 -39 43 -38 84 0 123 37 37 88 39 126 7z"/>
<path d="M1363 3139 c-187 -72 -247 -329 -112 -483 128 -145 357 -134 476 22
88 116 71 296 -37 401 -80 77 -216 103 -327 60z m176 -215 c76 -64 2 -192 -89
-154 -41 17 -60 46 -60 91 0 29 7 43 31 63 17 15 43 26 59 26 16 0 42 -11 59
-26z"/>
<path d="M4042 2645 c-80 -68 -18 -200 85 -180 54 10 83 45 83 100 0 38 -5 52
-29 76 -39 38 -96 40 -139 4z"/>
<path d="M3215 2581 c-88 -23 -166 -87 -206 -169 -35 -72 -33 -188 4 -264 67
-136 222 -200 373 -152 80 24 163 106 189 183 35 107 10 229 -66 315 -61 70
-201 112 -294 87z m108 -212 c63 -32 75 -102 28 -150 -48 -48 -118 -35 -150
29 -16 30 -6 74 22 99 36 34 65 40 100 22z"/>
<path d="M994 2431 c-60 -37 -66 -121 -12 -166 68 -58 168 -13 168 75 0 52
-13 76 -50 95 -39 20 -69 19 -106 -4z"/>
<path d="M1905 2178 c-37 -20 -55 -52 -55 -96 0 -35 6 -49 29 -73 81 -81 219
18 167 120 -27 51 -94 75 -141 49z"/>
<path d="M1289 1981 c-40 -41 -41 -98 -1 -142 71 -79 204 -7 178 96 -19 77
-120 103 -177 46z"/>
<path d="M3522 408 c-36 -10 -72 -58 -72 -96 0 -31 26 -79 49 -92 11 -5 38
-10 61 -10 90 0 134 103 73 169 -32 34 -65 42 -111 29z"/>
</g>
</svg>
