<?xml version="1.0" standalone="no"?>
<!DOCTYPE svg PUBLIC "-//W3C//DTD SVG 20010904//EN"
 "http://www.w3.org/TR/2001/REC-SVG-20010904/DTD/svg10.dtd">
<svg version="1.0" xmlns="http://www.w3.org/2000/svg"
 width="512.000000pt" height="512.000000pt" viewBox="0 0 512.000000 512.000000"
 preserveAspectRatio="xMidYMid meet">

<g transform="translate(0.000000,512.000000) scale(0.100000,-0.100000)"
fill="#B58863" stroke="none">
<path d="M3191 4342 c-19 -9 -48 -34 -65 -55 l-31 -39 -5 -301 -5 -302 -290
-166 -290 -166 -5 -314 -5 -314 -250 -143 -250 -144 -60 33 c-33 18 -103 57
-155 87 -279 161 -389 222 -403 222 -12 0 -125 -62 -317 -175 -25 -15 -136
-79 -247 -143 l-203 -116 0 -355 c0 -196 -4 -361 -8 -367 -4 -7 -23 -21 -42
-32 -19 -10 -96 -54 -170 -97 -74 -43 -164 -94 -199 -114 -87 -49 -148 -109
-157 -156 -15 -81 46 -177 122 -191 56 -10 112 10 254 93 19 11 116 67 214
123 l180 104 160 -84 c89 -46 217 -114 286 -152 l125 -67 175 91 c96 50 213
111 260 136 101 54 178 92 185 92 3 0 115 -58 248 -129 133 -71 269 -142 302
-159 l60 -30 105 56 c164 87 217 115 330 174 58 30 158 83 222 117 l118 63 2
325 3 326 110 59 c61 33 166 89 235 125 69 37 140 74 159 84 18 10 38 16 45
14 6 -2 119 -38 251 -79 132 -42 272 -87 311 -100 l71 -24 124 166 c68 92 155
209 194 261 123 164 205 280 205 290 0 8 -427 589 -502 684 l-23 28 -120 -39
c-99 -33 -336 -108 -482 -153 -36 -11 -39 -10 -403 200 l-135 77 -5 285 c-6
322 -8 334 -82 382 -49 32 -98 35 -147 9z m157 -1011 c37 -21 128 -73 202
-115 74 -43 141 -83 148 -88 9 -8 12 -69 10 -262 l-3 -251 -80 -43 c-44 -24
-141 -75 -215 -113 l-135 -71 -215 113 c-118 62 -218 117 -222 123 -5 6 -7
121 -5 254 l2 244 215 124 c118 68 219 124 223 124 4 0 38 -17 75 -39z m1188
-258 c48 -65 100 -135 115 -155 16 -20 29 -43 29 -50 0 -21 -230 -323 -245
-322 -7 1 -97 28 -199 60 l-186 59 2 204 3 205 105 31 c58 18 139 44 180 58
41 14 83 25 92 26 10 1 49 -43 104 -116z m-2933 -833 l217 -124 0 -247 0 -248
-27 -19 c-16 -11 -50 -30 -78 -44 -27 -13 -114 -58 -193 -99 l-143 -74 -175
90 c-97 50 -195 102 -220 118 l-44 27 0 250 0 250 48 25 c26 14 124 69 217
123 94 55 172 98 175 97 3 -1 103 -57 223 -125z m1132 53 c33 -18 116 -66 185
-106 l125 -72 0 -249 0 -249 -86 -47 c-47 -26 -147 -79 -221 -117 l-135 -71
-219 117 -219 117 0 249 0 250 70 41 c39 22 113 66 165 96 52 31 120 70 150
86 l55 31 35 -21 c19 -11 62 -36 95 -55z"/>
</g>
</svg>
