<?xml version="1.0" standalone="no"?>
<!DOCTYPE svg PUBLIC "-//W3C//DTD SVG 20010904//EN"
 "http://www.w3.org/TR/2001/REC-SVG-20010904/DTD/svg10.dtd">
<svg version="1.0" xmlns="http://www.w3.org/2000/svg"
 width="512.000000pt" height="512.000000pt" viewBox="0 0 512.000000 512.000000"
 preserveAspectRatio="xMidYMid meet">

<g transform="translate(0.000000,512.000000) scale(0.100000,-0.100000)"
fill="#000000" stroke="none">
<path d="M2299 4771 l-29 -29 0 -844 0 -843 -25 -40 c-13 -22 -25 -38 -25 -35
-1 3 -14 57 -30 120 -55 212 -163 389 -290 470 -203 130 -482 74 -717 -144
-47 -43 -56 -58 -56 -86 0 -38 40 -80 77 -80 13 0 58 28 104 64 154 122 249
161 367 154 88 -6 141 -33 210 -110 89 -98 169 -318 192 -525 l9 -81 -65 -67
c-61 -62 -248 -205 -269 -205 -5 0 -38 44 -72 98 l-62 97 7 150 c3 83 3 158
-1 168 -7 19 -54 47 -78 47 -8 0 -27 -11 -43 -24 -26 -23 -28 -30 -38 -152
l-10 -129 -123 -10 c-112 -9 -126 -12 -143 -34 -29 -35 -25 -85 9 -111 25 -21
33 -21 144 -15 65 4 125 8 134 9 15 1 132 -165 133 -189 1 -6 -61 -54 -137
-107 l-139 -97 -179 -42 c-98 -23 -189 -48 -202 -56 -63 -39 -37 -142 36 -143
13 0 80 14 149 30 69 17 126 30 127 30 2 0 -11 -75 -28 -166 l-31 -166 -197
-110 c-210 -118 -230 -136 -209 -190 11 -30 47 -58 74 -58 19 0 442 231 465
254 7 7 33 119 57 249 24 131 46 241 49 246 3 5 146 107 318 227 377 265 420
307 571 555 l97 161 0 254 0 254 130 0 130 0 0 -255 0 -254 97 -161 c148 -244
192 -287 572 -554 172 -121 314 -223 317 -227 2 -5 24 -114 48 -244 25 -139
49 -242 57 -250 8 -7 112 -68 231 -135 187 -105 222 -121 248 -115 59 13 81
92 38 132 -13 11 -102 64 -198 118 -96 53 -178 100 -182 103 -6 7 -67 324 -63
330 1 1 59 -11 129 -28 70 -16 137 -30 150 -30 59 0 90 100 43 137 -13 10
-103 37 -208 62 l-184 44 -138 96 c-92 64 -137 101 -134 111 2 8 30 55 61 103
42 66 61 87 74 83 9 -2 69 -8 132 -11 108 -7 117 -6 143 15 32 26 37 76 9 110
-19 23 -104 39 -213 40 l-56 0 -6 83 c-4 45 -7 101 -7 125 0 35 -6 49 -29 73
-37 36 -73 38 -107 3 l-26 -25 7 -154 7 -155 -62 -100 c-35 -55 -67 -100 -72
-100 -5 0 -55 33 -112 73 -127 89 -226 191 -220 227 36 252 62 349 126 471
139 270 374 293 651 63 75 -62 97 -70 135 -50 33 17 42 34 42 76 0 36 -98 127
-208 193 -251 149 -483 130 -655 -53 -96 -101 -185 -292 -213 -455 -10 -59
-15 -61 -40 -19 l-24 39 0 843 0 844 -30 30 c-26 25 -36 29 -63 24 -59 -11
-67 -32 -67 -182 l0 -134 -130 0 -130 0 0 129 c0 71 -3 137 -6 146 -7 18 -55
45 -79 45 -9 0 -30 -13 -46 -29z m391 -571 l0 -120 -130 0 -130 0 0 120 0 120
130 0 130 0 0 -120z m0 -400 l0 -120 -130 0 -130 0 0 120 0 120 130 0 130 0 0
-120z"/>
<path d="M945 3159 c-51 -41 -238 -348 -325 -533 -135 -290 -221 -579 -272
-919 -20 -129 -22 -183 -22 -607 -1 -464 -1 -465 22 -520 49 -115 122 -185
241 -231 45 -18 77 -22 161 -22 136 0 237 32 360 114 140 94 201 103 424 69
154 -24 271 -25 351 -5 179 47 307 227 360 509 21 107 55 715 55 986 l1 215
122 95 c66 52 127 96 133 98 7 2 69 -41 139 -95 l126 -98 -5 -115 c-5 -118 25
-794 44 -977 19 -178 86 -381 156 -473 44 -57 127 -113 201 -136 77 -24 291
-24 418 -1 106 20 196 21 246 3 20 -7 76 -39 125 -72 237 -159 508 -161 667
-6 54 53 87 110 112 196 15 52 17 104 12 480 -3 231 -10 459 -16 506 -60 456
-180 839 -373 1186 -80 144 -216 352 -239 364 -31 17 -69 11 -94 -15 -38 -37
-32 -72 23 -151 298 -424 482 -940 532 -1484 5 -63 10 -275 10 -471 0 -407 -2
-419 -76 -493 -72 -73 -178 -94 -295 -60 -30 8 -113 49 -186 90 -72 42 -152
82 -179 90 -64 19 -144 18 -319 -6 -248 -34 -326 -26 -397 38 -71 65 -123 171
-152 315 -24 117 -75 1032 -58 1049 9 9 417 -306 417 -322 0 -4 -51 -63 -112
-129 l-113 -121 0 -174 c0 -96 3 -182 6 -191 7 -18 55 -45 79 -45 9 0 30 13
46 29 l29 29 0 145 0 144 79 84 c43 46 81 82 83 79 3 -3 33 -84 68 -180 34
-96 72 -185 83 -197 37 -41 105 -27 126 25 11 26 4 52 -78 278 -49 137 -93
257 -96 267 -4 9 -217 183 -474 385 -590 465 -536 425 -568 420 -32 -5 -1016
-777 -1028 -805 -22 -57 -169 -463 -177 -490 -23 -80 74 -141 129 -81 11 13
48 102 83 198 34 96 65 177 67 180 3 3 41 -33 84 -80 l79 -84 0 -144 0 -144
29 -29 c32 -31 50 -35 84 -17 44 23 46 35 47 220 l0 176 -112 122 c-62 67
-113 125 -113 130 0 10 405 330 417 330 10 0 8 -78 -23 -625 -19 -344 -30
-440 -64 -540 -45 -134 -127 -234 -209 -256 -48 -13 -193 -6 -371 17 -201 27
-252 16 -465 -106 -47 -26 -114 -58 -150 -70 -167 -57 -331 16 -371 164 -18
65 -6 862 15 1005 68 465 227 894 470 1261 53 80 96 155 96 168 0 28 -51 82
-78 82 -11 0 -32 -10 -47 -21z"/>
</g>
</svg>
